<mxfile host="app.diagrams.net" modified="2022-05-17T09:50:11.805Z" agent="5.0 (Macintosh; Intel Mac OS X 10_15_7) AppleWebKit/537.36 (KHTML, like Gecko) Chrome/101.0.4951.64 Safari/537.36" etag="yljLnkVk9rW972FYWJCb" version="18.0.5" type="github">
  <diagram id="hU3i6fWzoo7rIiGHHxDo" name="第 1 页">
    <mxGraphModel dx="851" dy="636" grid="1" gridSize="10" guides="1" tooltips="1" connect="1" arrows="1" fold="1" page="1" pageScale="1" pageWidth="827" pageHeight="1169" math="0" shadow="0">
      <root>
        <mxCell id="0" />
        <mxCell id="1" parent="0" />
        <mxCell id="ufdd-dpepaknSzraolqv-4" style="rounded=0;orthogonalLoop=1;jettySize=auto;html=1;entryX=0.5;entryY=0;entryDx=0;entryDy=0;fontSize=24;fillColor=#6a00ff;strokeColor=#3700CC;strokeWidth=2;" edge="1" parent="1" source="ufdd-dpepaknSzraolqv-1" target="ufdd-dpepaknSzraolqv-2">
          <mxGeometry relative="1" as="geometry" />
        </mxCell>
        <mxCell id="ufdd-dpepaknSzraolqv-5" style="rounded=0;orthogonalLoop=1;jettySize=auto;html=1;entryX=0.5;entryY=0;entryDx=0;entryDy=0;fontSize=24;fillColor=#6a00ff;strokeColor=#3700CC;strokeWidth=2;" edge="1" parent="1" source="ufdd-dpepaknSzraolqv-1" target="ufdd-dpepaknSzraolqv-3">
          <mxGeometry relative="1" as="geometry" />
        </mxCell>
        <mxCell id="ufdd-dpepaknSzraolqv-1" value="&lt;font style=&quot;font-size: 24px;&quot;&gt;10&lt;/font&gt;" style="ellipse;whiteSpace=wrap;html=1;aspect=fixed;fillColor=#6a00ff;fontColor=#ffffff;strokeColor=#3700CC;strokeWidth=2;" vertex="1" parent="1">
          <mxGeometry x="334" y="100" width="50" height="50" as="geometry" />
        </mxCell>
        <mxCell id="ufdd-dpepaknSzraolqv-10" style="edgeStyle=none;rounded=0;orthogonalLoop=1;jettySize=auto;html=1;dashed=1;fontSize=24;strokeWidth=2;fillColor=#d80073;strokeColor=#A50040;" edge="1" parent="1" source="ufdd-dpepaknSzraolqv-2">
          <mxGeometry relative="1" as="geometry">
            <mxPoint x="330" y="300" as="targetPoint" />
          </mxGeometry>
        </mxCell>
        <mxCell id="ufdd-dpepaknSzraolqv-2" value="&lt;span style=&quot;font-size: 24px;&quot;&gt;8&lt;/span&gt;" style="ellipse;whiteSpace=wrap;html=1;aspect=fixed;fillColor=#6a00ff;fontColor=#ffffff;strokeColor=#3700CC;strokeWidth=2;" vertex="1" parent="1">
          <mxGeometry x="255" y="190" width="50" height="50" as="geometry" />
        </mxCell>
        <mxCell id="ufdd-dpepaknSzraolqv-3" value="&lt;font style=&quot;font-size: 24px;&quot;&gt;18&lt;/font&gt;" style="ellipse;whiteSpace=wrap;html=1;aspect=fixed;fillColor=#6a00ff;fontColor=#ffffff;strokeColor=#3700CC;strokeWidth=2;" vertex="1" parent="1">
          <mxGeometry x="415" y="190" width="50" height="50" as="geometry" />
        </mxCell>
        <mxCell id="ufdd-dpepaknSzraolqv-8" style="edgeStyle=none;rounded=0;orthogonalLoop=1;jettySize=auto;html=1;entryX=0.3;entryY=0;entryDx=0;entryDy=0;entryPerimeter=0;fontSize=24;strokeWidth=2;dashed=1;fillColor=#d80073;strokeColor=#A50040;" edge="1" parent="1" source="ufdd-dpepaknSzraolqv-6" target="ufdd-dpepaknSzraolqv-2">
          <mxGeometry relative="1" as="geometry" />
        </mxCell>
        <mxCell id="ufdd-dpepaknSzraolqv-6" value="&lt;span style=&quot;font-size: 24px;&quot;&gt;8&lt;/span&gt;" style="ellipse;whiteSpace=wrap;html=1;aspect=fixed;fillColor=#d80073;fontColor=#ffffff;strokeColor=#A50040;strokeWidth=2;" vertex="1" parent="1">
          <mxGeometry x="190" y="40" width="50" height="50" as="geometry" />
        </mxCell>
        <mxCell id="ufdd-dpepaknSzraolqv-7" value="Array Store:" style="text;html=1;align=center;verticalAlign=middle;resizable=0;points=[];autosize=1;strokeColor=none;fillColor=none;fontSize=24;" vertex="1" parent="1">
          <mxGeometry x="165" y="313" width="140" height="30" as="geometry" />
        </mxCell>
        <mxCell id="ufdd-dpepaknSzraolqv-15" value="" style="group" vertex="1" connectable="0" parent="1">
          <mxGeometry x="320" y="305" width="240" height="50" as="geometry" />
        </mxCell>
        <mxCell id="ufdd-dpepaknSzraolqv-11" value="" style="rounded=0;whiteSpace=wrap;html=1;fontSize=24;strokeWidth=2;" vertex="1" parent="ufdd-dpepaknSzraolqv-15">
          <mxGeometry width="60" height="50" as="geometry" />
        </mxCell>
        <mxCell id="ufdd-dpepaknSzraolqv-12" value="" style="rounded=0;whiteSpace=wrap;html=1;fontSize=24;strokeWidth=2;" vertex="1" parent="ufdd-dpepaknSzraolqv-15">
          <mxGeometry x="60" width="60" height="50" as="geometry" />
        </mxCell>
        <mxCell id="ufdd-dpepaknSzraolqv-13" value="" style="rounded=0;whiteSpace=wrap;html=1;fontSize=24;strokeWidth=2;" vertex="1" parent="ufdd-dpepaknSzraolqv-15">
          <mxGeometry x="120" width="60" height="50" as="geometry" />
        </mxCell>
        <mxCell id="ufdd-dpepaknSzraolqv-14" value="" style="rounded=0;whiteSpace=wrap;html=1;fontSize=24;strokeWidth=2;" vertex="1" parent="ufdd-dpepaknSzraolqv-15">
          <mxGeometry x="180" width="60" height="50" as="geometry" />
        </mxCell>
        <mxCell id="ufdd-dpepaknSzraolqv-16" value="&lt;span style=&quot;font-size: 24px;&quot;&gt;8&lt;/span&gt;" style="ellipse;whiteSpace=wrap;html=1;aspect=fixed;fillColor=#d80073;fontColor=#ffffff;strokeColor=#A50040;strokeWidth=2;" vertex="1" parent="ufdd-dpepaknSzraolqv-15">
          <mxGeometry x="65" width="50" height="50" as="geometry" />
        </mxCell>
        <mxCell id="ufdd-dpepaknSzraolqv-32" value="&lt;span style=&quot;font-size: 24px;&quot;&gt;8&lt;/span&gt;" style="ellipse;whiteSpace=wrap;html=1;aspect=fixed;fillColor=#6a00ff;fontColor=#ffffff;strokeColor=#3700CC;strokeWidth=2;" vertex="1" parent="ufdd-dpepaknSzraolqv-15">
          <mxGeometry x="5" width="50" height="50" as="geometry" />
        </mxCell>
        <mxCell id="ufdd-dpepaknSzraolqv-17" style="rounded=0;orthogonalLoop=1;jettySize=auto;html=1;entryX=0.5;entryY=0;entryDx=0;entryDy=0;fontSize=24;fillColor=#6a00ff;strokeColor=#3700CC;strokeWidth=2;" edge="1" parent="1" source="ufdd-dpepaknSzraolqv-19" target="ufdd-dpepaknSzraolqv-20">
          <mxGeometry relative="1" as="geometry" />
        </mxCell>
        <mxCell id="ufdd-dpepaknSzraolqv-18" style="rounded=0;orthogonalLoop=1;jettySize=auto;html=1;entryX=0.5;entryY=0;entryDx=0;entryDy=0;fontSize=24;fillColor=#6a00ff;strokeColor=#3700CC;strokeWidth=2;" edge="1" parent="1" source="ufdd-dpepaknSzraolqv-19" target="ufdd-dpepaknSzraolqv-21">
          <mxGeometry relative="1" as="geometry" />
        </mxCell>
        <mxCell id="ufdd-dpepaknSzraolqv-19" value="&lt;font style=&quot;font-size: 24px;&quot;&gt;10&lt;/font&gt;" style="ellipse;whiteSpace=wrap;html=1;aspect=fixed;fillColor=#6a00ff;fontColor=#ffffff;strokeColor=#3700CC;strokeWidth=2;" vertex="1" parent="1">
          <mxGeometry x="809" y="60" width="50" height="50" as="geometry" />
        </mxCell>
        <mxCell id="ufdd-dpepaknSzraolqv-28" style="edgeStyle=none;rounded=0;orthogonalLoop=1;jettySize=auto;html=1;entryX=0;entryY=0;entryDx=0;entryDy=0;fontSize=24;strokeWidth=2;fillColor=#6a00ff;strokeColor=#3700CC;" edge="1" parent="1" source="ufdd-dpepaknSzraolqv-20" target="ufdd-dpepaknSzraolqv-27">
          <mxGeometry relative="1" as="geometry" />
        </mxCell>
        <mxCell id="ufdd-dpepaknSzraolqv-20" value="&lt;span style=&quot;font-size: 24px;&quot;&gt;8&lt;/span&gt;" style="ellipse;whiteSpace=wrap;html=1;aspect=fixed;fillColor=#6a00ff;fontColor=#ffffff;strokeColor=#3700CC;strokeWidth=2;" vertex="1" parent="1">
          <mxGeometry x="730" y="150" width="50" height="50" as="geometry" />
        </mxCell>
        <mxCell id="ufdd-dpepaknSzraolqv-21" value="&lt;font style=&quot;font-size: 24px;&quot;&gt;18&lt;/font&gt;" style="ellipse;whiteSpace=wrap;html=1;aspect=fixed;fillColor=#6a00ff;fontColor=#ffffff;strokeColor=#3700CC;strokeWidth=2;" vertex="1" parent="1">
          <mxGeometry x="890" y="150" width="50" height="50" as="geometry" />
        </mxCell>
        <mxCell id="ufdd-dpepaknSzraolqv-27" value="&lt;span style=&quot;font-size: 24px;&quot;&gt;8&lt;/span&gt;" style="ellipse;whiteSpace=wrap;html=1;aspect=fixed;fillColor=#d80073;fontColor=#ffffff;strokeColor=#A50040;strokeWidth=2;" vertex="1" parent="1">
          <mxGeometry x="800" y="240" width="50" height="50" as="geometry" />
        </mxCell>
        <mxCell id="ufdd-dpepaknSzraolqv-30" style="edgeStyle=none;rounded=0;orthogonalLoop=1;jettySize=auto;html=1;dashed=1;fontSize=24;strokeWidth=2;" edge="1" parent="1" source="ufdd-dpepaknSzraolqv-29" target="ufdd-dpepaknSzraolqv-20">
          <mxGeometry relative="1" as="geometry" />
        </mxCell>
        <mxCell id="ufdd-dpepaknSzraolqv-29" value="&lt;span style=&quot;font-size: 24px;&quot;&gt;8&lt;/span&gt;" style="ellipse;whiteSpace=wrap;html=1;aspect=fixed;fillColor=#d80073;fontColor=#ffffff;strokeColor=#A50040;strokeWidth=2;" vertex="1" parent="1">
          <mxGeometry x="650" y="60" width="50" height="50" as="geometry" />
        </mxCell>
        <mxCell id="ufdd-dpepaknSzraolqv-31" value="Right Child:" style="text;html=1;align=center;verticalAlign=middle;resizable=0;points=[];autosize=1;strokeColor=none;fillColor=none;fontSize=24;" vertex="1" parent="1">
          <mxGeometry x="652" y="250" width="140" height="30" as="geometry" />
        </mxCell>
      </root>
    </mxGraphModel>
  </diagram>
</mxfile>
